<svg xmlns="http://www.w3.org/2000/svg" width="152" height="34.904368358913814" viewBox="0 0 152 34.904368358913814" class="editor-view__logo-preview" data-v-8d8ae3dd="" data-v-b9d2a614=""><!----><svg id="name" viewBox="0 0 152.1953125 34.94921875" width="152" height="34.904368358913814" x="0" y="0" data-v-8d8ae3dd="" style="fill: rgb(0, 0, 0);"><rect x="0" y="0" width="100%" height="100%" fill="none" data-v-8d8ae3dd=""></rect><g data-v-8d8ae3dd=""><path xmlns="http://www.w3.org/2000/svg" d="M26.68 17.32L26.68 30.37Q24.86 32.55 21.54 33.75Q18.22 34.95 14.17 34.95L14.17 34.95Q9.93 34.95 6.73 33.10Q3.53 31.24 1.79 27.72Q0.04 24.19 0 19.43L0 19.43L0 17.21Q0 12.31 1.65 8.73Q3.30 5.14 6.41 3.25Q9.52 1.35 13.70 1.35L13.70 1.35Q19.52 1.35 22.80 4.12Q26.08 6.90 26.68 12.20L26.68 12.20L20.13 12.20Q19.68 9.39 18.14 8.09Q16.60 6.78 13.90 6.78L13.90 6.78Q10.47 6.78 8.67 9.37Q6.87 11.95 6.85 17.05L6.85 17.05L6.85 19.14Q6.85 24.28 8.80 26.91Q10.76 29.54 14.53 29.54L14.53 29.54Q18.33 29.54 19.95 27.92L19.95 27.92L19.95 22.28L13.81 22.28L13.81 17.32L26.68 17.32ZM52.36 34.50L45.80 34.50Q45.35 33.62 45.15 32.32L45.15 32.32Q42.79 34.95 39.01 34.95L39.01 34.95Q35.44 34.95 33.10 32.88Q30.75 30.82 30.75 27.67L30.75 27.67Q30.75 23.81 33.61 21.74Q36.48 19.68 41.89 19.65L41.89 19.65L44.88 19.65L44.88 18.26Q44.88 16.58 44.01 15.57Q43.15 14.55 41.28 14.55L41.28 14.55Q39.64 14.55 38.71 15.34Q37.78 16.13 37.78 17.50L37.78 17.50L31.29 17.50Q31.29 15.39 32.59 13.59Q33.89 11.79 36.27 10.77Q38.66 9.75 41.62 9.75L41.62 9.75Q46.11 9.75 48.75 12.01Q51.39 14.26 51.39 18.35L51.39 18.35L51.39 28.88Q51.41 32.34 52.36 34.12L52.36 34.12L52.36 34.50ZM40.43 29.99L40.43 29.99Q41.87 29.99 43.08 29.35Q44.29 28.71 44.88 27.63L44.88 27.63L44.88 23.45L42.45 23.45Q37.58 23.45 37.26 26.82L37.26 26.82L37.24 27.20Q37.24 28.41 38.09 29.20Q38.95 29.99 40.43 29.99ZM75.36 14.04L63.83 29.27L75.72 29.27L75.72 34.50L55.55 34.50L55.55 30.55L66.98 15.45L55.88 15.45L55.88 10.20L75.36 10.20L75.36 14.04ZM90.61 34.95L90.61 34.95Q85.26 34.95 81.90 31.67Q78.55 28.39 78.55 22.93L78.55 22.93L78.55 22.30Q78.55 18.64 79.96 15.76Q81.38 12.87 83.97 11.31Q86.56 9.75 89.89 9.75L89.89 9.75Q94.88 9.75 97.74 12.89Q100.60 16.04 100.60 21.81L100.60 21.81L100.60 24.46L85.13 24.46Q85.44 26.84 87.02 28.28Q88.61 29.72 91.03 29.72L91.03 29.72Q94.79 29.72 96.90 27.00L96.90 27.00L100.09 30.57Q98.63 32.64 96.13 33.79Q93.64 34.95 90.61 34.95ZM89.87 15.00L89.87 15.00Q87.93 15.00 86.73 16.31Q85.53 17.61 85.19 20.04L85.19 20.04L94.22 20.04L94.22 19.52Q94.18 17.36 93.06 16.18Q91.93 15.00 89.87 15.00ZM126.19 22.21L126.19 22.57Q126.19 28.41 123.69 31.68Q121.20 34.95 116.73 34.95L116.73 34.95Q112.78 34.95 110.42 31.92L110.42 31.92L110.13 34.50L104.29 34.50L104.29 0L110.78 0L110.78 12.38Q113.02 9.75 116.68 9.75L116.68 9.75Q121.13 9.75 123.66 13.02Q126.19 16.28 126.19 22.21L126.19 22.21ZM119.69 22.10L119.69 22.10Q119.69 18.42 118.53 16.72Q117.36 15.03 115.04 15.03L115.04 15.03Q111.95 15.03 110.78 17.56L110.78 17.56L110.78 27.16Q111.97 29.72 115.09 29.72L115.09 29.72Q118.23 29.72 119.22 26.62L119.22 26.62Q119.69 25.13 119.69 22.10ZM129.17 22.42L129.17 22.12Q129.17 18.51 130.57 15.68Q131.96 12.85 134.57 11.30Q137.19 9.75 140.65 9.75L140.65 9.75Q145.57 9.75 148.68 12.76Q151.79 15.77 152.15 20.93L152.15 20.93L152.20 22.60Q152.20 28.19 149.07 31.57Q145.95 34.95 140.70 34.95Q135.44 34.95 132.31 31.58Q129.17 28.21 129.17 22.42L129.17 22.42ZM135.66 22.60L135.66 22.60Q135.66 26.05 136.97 27.89Q138.27 29.72 140.70 29.72L140.70 29.72Q143.05 29.72 144.38 27.91Q145.70 26.10 145.70 22.12L145.70 22.12Q145.70 18.73 144.38 16.87Q143.05 15.00 140.65 15.00L140.65 15.00Q138.27 15.00 136.97 16.86Q135.66 18.71 135.66 22.60Z"></path></g></svg><!----></svg>